<svg width="94" height="40" viewBox="0 0 94 40" fill="none" xmlns="http://www.w3.org/2000/svg">
<path d="M81.53 15.9866H77.2952L75.3407 18.1173V32.499L77.4581 34.8072H81.6929L83.8103 32.499V18.1173L81.6929 15.8091L81.53 15.9866ZM80.227 7.99678H78.5982V6.04371H76.9695V11.5478H80.227L81.0414 10.6601V8.88455L80.227 7.99678ZM78.5982 10.305V9.0621H79.5755V10.305H78.5982ZM81.8558 6.04371H83.4846V11.3703H81.8558V6.04371ZM51.3977 6.04371H49.7689V7.81923H48.7917V6.04371H47.1629V8.17434L47.9773 9.0621H49.606V10.1274H48.6288V9.59475H47V10.4825L47.8144 11.3703H50.2576L51.0719 10.4825V6.04371H51.3977ZM90.9769 5.51105L90.1626 4.62329H91.9542L91.1398 5.51105H90.9769ZM91.6285 6.04371V6.57637L90.3254 8.52944V6.04371H88.6967V11.5478H90.3254V10.8376L91.6285 8.88455V11.5478H93.2572V6.04371H91.6285ZM70.2915 6.04371V7.99678H68.9885V6.04371H67.3597V11.5478H68.9885V9.59475H70.2915V11.5478H71.9203V6.04371H70.2915ZM60.6817 6.04371L59.5416 7.81923L58.4014 6.04371H56.7727V11.5478H58.4014V8.35189L59.5416 10.1274L60.6817 8.35189V11.5478H62.3105V6.04371H60.6817ZM93.2572 15.9866H86.905L84.9505 18.1173V34.6296H91.3027L93.2572 32.499V27.1724L91.6285 25.3969L93.2572 23.6214V15.9866ZM89.6739 32.8541H88.5338V26.4622H89.6739V32.8541ZM89.6739 24.5091H88.5338V18.1173H89.6739V24.5091ZM63.1249 16.1642H58.8901L56.9355 18.2948V34.8072H60.5188V26.4622H61.659V34.8072H65.2423V18.2948L63.2878 16.1642H63.1249ZM61.4961 24.5091H60.356V18.1173H61.4961V24.5091ZM47.3258 18.2948V34.8072H53.678L55.7954 32.499V26.1071H52.2121V32.8541H51.0719V17.9397H52.2121V24.6867H55.7954V18.2948L53.678 15.9866H49.4432L47.4886 18.1173L47.3258 18.2948ZM72.4089 16.1642H68.1741L66.2196 18.2948V34.8072H69.8029V31.6112H72.4089L74.5263 29.3031V18.2948L72.4089 15.9866V16.1642ZM70.7801 29.6582H69.64V18.1173H70.7801V29.6582ZM80.227 32.8541H79.0869V17.9397H80.227V32.8541Z" fill="#D8E9E3"/>
<path fill-rule="evenodd" clip-rule="evenodd" d="M8.97959 0H31.0204C36.0816 0 40 4.08163 40 8.97959V31.0204C40 36.0816 35.9184 40 31.0204 40H8.97959C3.91837 40 0 35.9184 0 31.0204V8.97959C0 3.91837 4.08163 0 8.97959 0Z" fill="url(#paint0_linear)"/>
<path d="M30.5407 13.9447C30.9893 10.2069 30.0922 7.36609 27.999 6.02046C25.9058 4.82434 22.9155 5.57192 19.9252 7.81463C21.4204 9.01074 22.9155 10.5059 24.4107 12.3001C26.6534 12.5991 28.7466 13.1971 30.5407 13.9447Z" fill="#452B95"/>
<path d="M9.45921 26.0554C9.01067 29.7932 9.90775 32.634 12.001 33.9796C14.0941 35.1757 17.0844 34.4282 20.0747 32.1854C18.5796 30.9893 17.0844 29.4942 15.5893 27.7C13.3466 27.401 11.2534 26.8029 9.45921 26.0554Z" fill="#452B95"/>
<path d="M11.1039 20.0748C10.2068 17.9816 9.7583 15.8884 9.45927 13.9447C6.02044 15.4399 3.92725 17.6826 3.92725 20.0748C3.92725 22.467 6.02044 24.7097 9.45927 26.2049C9.60879 24.2612 10.2068 22.168 11.1039 20.0748Z" fill="#967AE1"/>
<path d="M28.8962 19.9253C29.7933 22.0185 30.2418 24.1117 30.5408 26.0554C33.9797 24.5603 36.0729 22.3176 36.0729 19.9253C36.0729 17.5331 33.9797 15.2904 30.5408 13.7953C30.3913 15.7389 29.7933 17.6826 28.8962 19.9253Z" fill="#967AE1"/>
<path d="M24.4107 12.3001C23.0651 12.1506 21.4205 12.001 19.9253 12.001C18.4302 12.001 16.935 12.1506 15.4399 12.3001C14.5428 13.4962 13.6457 14.6923 12.8982 16.0379C12.1506 17.3835 11.403 18.7292 10.9545 20.0748C11.5525 21.4204 12.1506 22.7661 12.8982 24.1117C13.6457 25.4573 14.5428 26.6534 15.4399 27.8495C16.935 27.999 18.4302 28.1486 19.9253 28.1486C21.4205 28.1486 22.9156 27.999 24.4107 27.8495C25.3078 26.6534 26.2049 25.4573 26.9525 24.1117C27.7001 22.7661 28.4476 21.4204 28.8962 20.0748C28.2981 18.7292 27.7001 17.3835 26.9525 16.0379C26.2049 14.6923 25.3078 13.4962 24.4107 12.3001Z" fill="#967AE1"/>
<path d="M11.1039 29.6437C11.1039 30.5408 10.3564 31.1388 9.60879 31.1388C8.7117 31.1388 8.11365 30.5408 8.11365 29.6437C8.11365 28.7466 8.86122 28.1485 9.60879 28.1485C10.5059 28.1485 11.1039 28.8961 11.1039 29.6437Z" fill="#967AE1"/>
<path d="M20.0748 32.1854C23.0651 34.4282 26.0554 35.1757 28.1486 33.9796C30.2418 32.7835 30.9894 29.7932 30.6903 26.0554C28.8962 26.8029 26.9525 27.401 24.5603 27.7C23.2146 29.4942 21.57 30.9893 20.0748 32.1854Z" fill="#AF97EF"/>
<path d="M19.9253 7.81463C16.935 5.57192 13.9448 4.82434 11.8516 6.02046C9.75836 7.21657 9.01079 10.2069 9.30981 13.9447C11.104 13.1971 13.0477 12.5991 15.4399 12.3001C16.7855 10.5059 18.4302 9.01074 19.9253 7.81463Z" fill="#AF97EF"/>
<path d="M23.5136 17.9816C24.5602 19.9253 23.9622 22.3175 22.0185 23.5136C20.0748 24.5602 17.6826 23.9622 16.4865 22.0185C15.4399 20.0748 16.0379 17.6826 17.9816 16.4865C19.9253 15.4399 22.3175 16.0379 23.5136 17.9816Z" fill="#452B95"/>
<path d="M11.5525 8.86123C11.5525 9.75832 10.8049 10.3564 10.0573 10.3564C9.16025 10.3564 8.56219 9.75832 8.56219 8.86123C8.56219 7.96415 9.30977 7.36609 10.0573 7.36609C10.9544 7.36609 11.5525 8.11366 11.5525 8.86123Z" fill="#452B95"/>
<path d="M36.0727 16.6359C36.0727 17.533 35.4746 18.1311 34.5775 18.1311C33.6805 18.1311 33.0824 17.3835 33.0824 16.6359C33.0824 15.7388 33.83 15.1408 34.5775 15.1408C35.4746 15.1408 36.0727 15.8883 36.0727 16.6359Z" fill="#AF97EF"/>
<defs>
<linearGradient id="paint0_linear" x1="22.7273" y1="28.1818" x2="27.2727" y2="43.1818" gradientUnits="userSpaceOnUse">
<stop stop-color="#7457C8"/>
<stop offset="1" stop-color="#452B95"/>
</linearGradient>
</defs>
</svg>
